<?xml version="1.0" encoding="UTF-8"?>
<svg xmlns="http://www.w3.org/2000/svg" xmlns:xlink="http://www.w3.org/1999/xlink" width="400px" height="166px" viewBox="0 0 400 166" version="1.1">
<defs>
<clipPath id="clip1">
  <path d="M 1 0 L 399 0 L 399 165.90625 L 1 165.90625 Z M 1 0 "/>
</clipPath>
</defs>
<g id="surface1">
<g clip-path="url(#clip1)" clip-rule="nonzero">
<path style=" stroke:none;fill-rule:evenodd;fill:rgb(95.686275%,90.196078%,13.72549%);fill-opacity:1;" d="M 319.617188 0.109375 L 378.585938 160.992188 L 399 161 L 399 162.15625 L 334.03125 162.15625 L 334.03125 161 L 353.15625 161 L 333.765625 108.09375 L 294.40625 108.09375 L 294.40625 108.117188 L 294.617188 108.726562 C 296.1875 113.398438 296.96875 118.289062 296.921875 123.21875 L 296.921875 143.046875 C 296.921875 153.25 301.429688 163.59375 310.03125 163.59375 C 315.078125 163.59375 319.109375 161.8125 323.914062 157.421875 L 324.59375 158.054688 C 319.382812 163.5625 313.070312 165.90625 303.601562 165.90625 C 296.453125 165.90625 290.335938 164.179688 285.421875 160.796875 L 284.484375 160.125 C 278.007812 155.226562 273.804688 147.21875 272 136.328125 L 271.710938 134.570312 L 271.40625 131.90625 L 271.375 131.453125 L 260.523438 160.984375 L 275.921875 160.984375 L 275.921875 162.140625 L 243.710938 162.140625 L 243.710938 160.984375 L 259.273438 160.984375 L 271.1875 128.546875 L 271.1875 128.484375 C 271.054688 126.570312 270.984375 124.648438 270.960938 122.734375 L 270.960938 108.578125 C 270.960938 91.171875 258.023438 81.1875 235.46875 81.1875 L 213.296875 81.1875 L 213.296875 160.992188 L 232.507812 160.992188 L 232.507812 162.148438 L 157.429688 162.148438 L 157.429688 160.992188 L 176.5625 160.992188 L 157.171875 108.085938 L 103.359375 108.085938 L 84.148438 160.40625 L 84.953125 160.273438 C 110.171875 155.929688 121.773438 136.671875 121.929688 116.390625 L 123.101562 116.390625 L 123.101562 162.148438 L 1 162.148438 L 91.632812 6.59375 L 55.1875 6.59375 C 24.984375 6.59375 11.3125 29.929688 11.101562 53.195312 L 9.9375 53.195312 L 9.9375 5.429688 L 119.953125 5.429688 L 119.28125 6.59375 L 29.328125 160.992188 L 76.65625 160.992188 C 77.828125 160.992188 79 160.9375 80.179688 160.84375 C 80.960938 160.789062 81.75 160.710938 82.554688 160.609375 L 82.84375 160.585938 L 141.8125 0 L 142.984375 0 L 143.023438 0.109375 L 189.359375 126.539062 L 189.359375 6.59375 L 170.28125 6.59375 L 170.28125 5.414062 L 235.945312 5.414062 C 267.507812 5.414062 289.539062 21.617188 289.539062 44.835938 C 289.539062 61.757812 274.445312 75.8125 252 79.804688 L 247.875 80.335938 L 252.03125 80.757812 C 265.640625 82.3125 276.453125 86.507812 284.117188 93.203125 L 284.164062 93.25 L 318.414062 0 L 319.578125 0 Z M 293.835938 106.648438 L 293.953125 106.929688 L 333.328125 106.929688 L 306.875 34.75 L 285.109375 94.085938 L 285.226562 94.195312 L 286.328125 95.296875 C 289.53125 98.5625 292.078125 102.414062 293.835938 106.648438 Z M 213.3125 80.023438 L 213.3125 6.59375 L 230.226562 6.59375 C 252.828125 6.59375 264.765625 19.90625 264.765625 45.078125 C 264.765625 71.859375 257.914062 80.023438 235.46875 80.023438 Z M 130.296875 34.75 L 103.789062 106.929688 L 156.75 106.929688 Z M 130.296875 34.75 "/>
</g>
</g>
</svg>
